<svg version="1.1" id="图层_1" x="0px" y="0px" width="173.203px" height="200px" viewBox="0 0 173.203 200" xml:space="preserve" xmlns="http://www.w3.org/2000/svg" xmlns:xlink="http://www.w3.org/1999/xlink" xmlns:xml="http://www.w3.org/XML/1998/namespace"><defs class="defs"></defs>
  <path fill="#3178c6" d="M151.156,37.27l-22.572,20.48l-46.617,6.597l-17.041,40.241l71.906-5.278l-22.76,22.649l-59.371,8.025
	c0,0-15.783,29.324-20.869,39.55L86.602,200l86.601-50V50L151.156,37.27z"></path>
  <path fill="#8a2be2" d="M149.348,36.227L86.602,0L0,50v100l32.861,18.973C36.015,146.498,50.744,37.08,50.744,37.08L149.348,36.227z
	"></path>
  <path fill="#FFFFFF" d="M114.072,121.959l22.76-22.649l-71.906,5.278l17.041-40.241l46.617-6.597l22.572-20.48l-1.809-1.043
	l-98.604,0.854c0,0-14.729,109.418-17.883,131.894l0.971,0.561c5.086-10.227,20.869-39.549,20.869-39.549L114.072,121.959z"></path>
</svg>